<?xml version="1.0" standalone="no"?>
<!DOCTYPE svg PUBLIC "-//W3C//DTD SVG 20010904//EN"
 "http://www.w3.org/TR/2001/REC-SVG-20010904/DTD/svg10.dtd">
<svg version="1.0" xmlns="http://www.w3.org/2000/svg"
 width="300.000000pt" height="300.000000pt" viewBox="0 0 300.000000 300.000000"
 preserveAspectRatio="xMidYMid meet">
<metadata>
Created by potrace 1.15, written by Peter Selinger 2001-2017
</metadata>
<g transform="translate(0.000000,300.000000) scale(0.100000,-0.100000)"
fill="#000000" stroke="none">
<path d="M1045 2620 c-226 -81 -419 -154 -430 -162 -34 -26 -475 -783 -475
-816 0 -56 148 -883 162 -902 7 -10 167 -147 356 -303 l342 -285 273 -7 c149
-4 362 -5 472 -3 l200 3 340 280 c187 154 350 289 362 300 21 18 32 69 103
454 44 239 80 448 80 463 0 19 -73 156 -221 411 -122 210 -228 389 -237 398
-23 23 -850 319 -887 318 -16 -1 -214 -68 -440 -149z m585 -1301 c0 -5 -5 -7
-12 -3 -6 4 -9 3 -5 -2 3 -5 21 -9 41 -8 26 1 36 -2 36 -13 0 -10 -6 -12 -22
-8 -32 10 -30 10 -55 1 -36 -12 -30 -56 14 -105 25 -29 42 -41 55 -38 24 7 32
-8 14 -26 -8 -8 -12 -18 -8 -22 4 -5 -2 -3 -13 3 -11 6 -38 34 -60 64 -47 60
-67 66 -76 23 -5 -24 -7 -27 -13 -12 -10 21 -32 22 -40 1 -3 -9 -6 -54 -6
-101 0 -75 -2 -84 -17 -81 -18 3 -20 13 -22 111 -1 35 -5 47 -16 47 -8 0 -15
-5 -15 -12 0 -6 -3 -8 -6 -5 -10 10 17 67 32 67 7 0 15 -8 17 -17 3 -10 3 -1
2 20 -3 33 0 39 23 48 15 5 34 12 42 16 8 3 20 5 26 5 5 -1 23 11 39 28 30 31
45 38 45 19z m49 -519 c-2 -42 -6 -50 -22 -50 -10 0 -34 15 -53 34 -27 27 -34
30 -34 16 0 -22 22 -46 50 -55 11 -3 20 -12 20 -20 0 -9 -22 -15 -70 -20 -81
-8 -99 1 -101 49 -1 21 -3 24 -6 10 -5 -26 -50 -70 -60 -60 -5 4 0 14 10 21
11 8 21 31 24 54 7 52 35 57 50 9 7 -25 14 -32 28 -30 25 5 45 33 39 55 -6 20
30 25 43 5 4 -7 18 -13 30 -14 12 0 20 3 17 8 -9 15 4 38 21 38 13 0 16 -10
14 -50z m165 -301 c-3 -5 -10 -6 -16 -3 -7 4 -8 2 -4 -4 4 -6 14 -8 23 -5 11
4 14 3 9 -5 -4 -8 -2 -10 7 -6 8 3 18 1 22 -5 3 -6 17 -8 30 -5 13 3 32 1 42
-6 17 -11 16 -11 -3 -7 -17 4 -20 0 -18 -19 3 -33 -37 -32 -70 1 -28 28 -56
33 -56 10 0 -8 -8 -15 -17 -15 -28 -1 -60 -31 -77 -72 -8 -21 -12 -38 -8 -38
4 0 13 -9 20 -21 8 -12 10 -19 5 -16 -5 3 -10 -5 -11 -19 -1 -13 3 -24 9 -24
6 0 9 7 5 15 -4 12 4 14 43 14 33 -1 48 -6 48 -15 0 -10 -4 -11 -14 -3 -9 8
-13 8 -13 0 0 -6 5 -12 10 -12 6 -1 16 -2 23 -3 21 -4 29 5 17 19 -9 10 -6 20
11 39 25 29 42 34 33 11 -4 -8 -1 -15 5 -15 14 0 15 27 1 35 -17 10 -11 23 8
18 12 -3 19 1 19 10 0 8 -6 13 -12 11 -6 -3 -12 2 -12 11 0 17 42 21 52 5 3
-5 2 -10 -4 -10 -5 0 -8 -9 -6 -19 2 -11 -3 -22 -12 -25 -9 -4 -13 -9 -9 -13
3 -3 0 -16 -8 -27 -11 -18 -11 -23 2 -36 14 -13 15 -12 9 3 -9 23 12 67 32 66
10 0 12 -2 4 -6 -22 -8 -15 -32 8 -28 13 3 19 0 16 -8 -2 -7 -12 -11 -22 -9
-10 2 -14 -1 -10 -7 3 -6 2 -11 -3 -11 -4 0 -18 -9 -29 -20 -18 -16 -23 -17
-32 -6 -7 8 -11 18 -10 22 1 5 1 20 -1 34 -1 23 -2 23 -9 5 -5 -11 -5 -22 -1
-25 4 -3 4 -15 -1 -27 -6 -17 -15 -22 -34 -21 -14 1 -25 5 -25 9 0 4 -10 9
-22 13 -19 5 -20 8 -8 16 12 7 10 9 -8 7 -23 -1 -29 -12 -12 -22 6 -3 10 -12
10 -18 0 -7 -4 -6 -10 3 -6 10 -10 11 -10 3 0 -7 -5 -13 -11 -13 -5 0 -7 6 -3
13 6 9 4 9 -7 -1 -17 -16 -79 -16 -80 1 0 10 -2 10 -6 0 -3 -9 -32 -13 -96
-13 -63 0 -87 3 -77 10 9 6 10 10 3 10 -6 0 -15 -5 -19 -11 -4 -8 -9 -7 -15 2
-7 11 -9 11 -9 -1 0 -13 -1 -13 -10 0 -8 12 -10 12 -10 1 0 -11 -3 -11 -17 0
-11 10 -14 10 -9 2 5 -9 0 -13 -13 -13 -12 0 -21 4 -21 9 0 14 26 32 34 23 5
-4 6 0 5 8 -2 8 0 15 5 15 5 0 13 10 17 23 6 14 13 20 21 16 8 -5 9 -2 5 9 -3
10 -2 17 4 17 6 0 7 4 4 10 -3 5 1 23 10 39 8 17 15 39 15 51 0 12 4 19 8 16
11 -7 3 -66 -9 -66 -5 0 -5 -7 -2 -17 4 -11 3 -14 -5 -9 -7 4 -12 2 -12 -3 0
-6 4 -11 10 -11 13 0 41 -56 32 -65 -4 -5 0 -6 10 -2 10 4 15 1 14 -8 -3 -18
-16 -32 -16 -17 0 7 -7 12 -16 12 -11 0 -13 6 -9 19 7 22 -10 37 -21 20 -4 -8
-3 -9 4 -5 7 4 12 3 12 -2 0 -17 -13 -21 -34 -10 -11 6 -18 7 -13 3 4 -5 0
-16 -9 -26 -14 -16 -14 -17 1 -15 9 1 20 8 25 15 6 10 10 9 18 -5 6 -10 14
-16 18 -12 4 5 13 3 21 -3 7 -6 13 -8 13 -4 0 4 6 2 14 -4 11 -9 13 -6 11 14
-3 25 14 30 43 12 6 -5 12 -4 12 2 0 8 67 37 80 34 3 -1 6 10 6 24 2 17 -2 23
-13 19 -8 -3 -11 -2 -8 3 3 5 0 13 -6 17 -7 4 -9 3 -6 -3 15 -23 -57 -65 -77
-45 -4 4 -13 7 -19 7 -7 0 -12 5 -12 10 0 6 -4 16 -9 23 -4 7 -6 16 -3 19 9 8
28 -7 22 -18 -4 -5 -1 -9 4 -9 6 0 9 10 7 23 -2 14 -9 21 -20 19 -22 -4 -20
19 7 58 18 27 30 34 65 37 30 3 44 0 48 -10 6 -16 51 -15 95 2 15 5 29 8 31 5
3 -2 15 7 28 21 21 22 48 26 34 4z m-589 -38 c-3 -5 3 -12 13 -15 24 -8 47
-50 38 -71 -4 -12 -2 -16 8 -12 13 5 22 -12 32 -61 1 -8 5 -16 8 -19 3 -4 -9
-20 -26 -36 -17 -17 -33 -26 -35 -20 -3 7 -14 6 -34 -4 -23 -12 -34 -12 -42
-4 -9 9 -8 14 2 21 13 7 13 11 0 26 -9 11 -9 15 -1 10 7 -4 15 -1 18 8 3 9 10
14 14 11 5 -3 12 0 16 6 4 8 3 9 -4 5 -7 -4 -12 -2 -12 4 0 6 -4 8 -10 5 -6
-3 -7 1 -4 9 3 9 11 13 18 9 6 -4 17 -8 25 -10 8 -1 18 -8 22 -15 7 -11 9 -11
9 0 0 7 5 10 10 7 6 -3 10 1 10 10 0 9 -4 14 -8 11 -5 -3 -16 4 -25 15 -9 10
-13 19 -9 19 5 0 8 10 7 23 -1 12 -6 22 -12 22 -5 0 -17 8 -27 18 -21 21 -27
22 -20 3 3 -8 -3 -16 -15 -19 -17 -4 -18 -2 -11 18 5 13 6 26 3 29 -4 3 6 6
21 6 15 0 25 -4 21 -9z"/>
</g>
</svg>
